<svg width="25" height="25" viewBox="0 0 25 25" fill="none" xmlns="http://www.w3.org/2000/svg">
<path d="M4.43638 17.285C3.2716 15.3214 2.86368 13.0002 3.28923 10.7572C3.71478 8.51418 4.94451 6.50366 6.74752 5.10317C8.55053 3.70268 10.8028 3.00856 13.0813 3.15115C15.3599 3.29374 17.5081 4.26322 19.1224 5.87756C20.7368 7.4919 21.7062 9.64004 21.8488 11.9186C21.9914 14.1972 21.2973 16.4494 19.8968 18.2524C18.4964 20.0555 16.4859 21.2852 14.2428 21.7108C11.9998 22.1363 9.67861 21.7284 7.71507 20.5636L7.71509 20.5635L4.47714 21.4887C4.34318 21.5269 4.20142 21.5287 4.06655 21.4938C3.93167 21.4588 3.8086 21.3884 3.71008 21.2899C3.61157 21.1914 3.54119 21.0683 3.50624 20.9334C3.47129 20.7986 3.47305 20.6568 3.51132 20.5228L4.43645 17.2849L4.43638 17.285Z" stroke="white" stroke-width="2" stroke-linecap="round" stroke-linejoin="round"/>
<path d="M9.375 10.9375H15.625" stroke="white" stroke-width="2" stroke-linecap="round" stroke-linejoin="round"/>
<path d="M9.375 14.0625H15.625" stroke="white" stroke-width="2" stroke-linecap="round" stroke-linejoin="round"/>
</svg>
